<svg xmlns="http://www.w3.org/2000/svg" width="171.428" height="33.679" viewBox="0 0 171.428 33.679">
  <g id="Group_7" data-name="Group 7" transform="translate(-419.232 -1162.989)">
    <g id="ndrea." transform="translate(460.832 1163.705)" style="isolation: isolate">
      <g id="Group_6" data-name="Group 6" transform="translate(0 0)" style="isolation: isolate">
        <path id="Path_8" data-name="Path 8" d="M488.2,1202.042v-22.62h4.634v3.4h.734a6.839,6.839,0,0,1,2.294-2.57,8.36,8.36,0,0,1,4.909-1.194,9.013,9.013,0,0,1,4.566,1.147,8.212,8.212,0,0,1,3.143,3.235,10.3,10.3,0,0,1,1.147,5.024v13.581H504.9v-13.214a5.739,5.739,0,0,0-1.468-4.335,5.614,5.614,0,0,0-4.038-1.4,6.072,6.072,0,0,0-4.7,1.927,8.007,8.007,0,0,0-1.767,5.6v11.424Z" transform="translate(-488.199 -1169.722)" fill="#fff"/>
        <path id="Path_9" data-name="Path 9" d="M542.495,1196.5a10.121,10.121,0,0,1-9.015-5.379,12.82,12.82,0,0,1-1.445-6.3v-.692a13.027,13.027,0,0,1,1.422-6.279,10.022,10.022,0,0,1,3.808-4.016,10.233,10.233,0,0,1,5.23-1.385,10.689,10.689,0,0,1,3.694.554,7.716,7.716,0,0,1,2.455,1.408,6.755,6.755,0,0,1,1.468,1.778h.734v-12.649h4.726v32.316h-4.634v-3.231H550.2a8.574,8.574,0,0,1-2.638,2.678A9,9,0,0,1,542.495,1196.5Zm1.331-4.154a6.891,6.891,0,0,0,5.07-1.986,7.657,7.657,0,0,0,2-5.678v-.415a7.645,7.645,0,0,0-1.974-5.632,7.435,7.435,0,0,0-10.116,0,7.591,7.591,0,0,0-2,5.632v.415a7.654,7.654,0,0,0,2,5.678A6.831,6.831,0,0,0,543.826,1192.342Z" transform="translate(-506.249 -1163.534)" fill="#fff"/>
        <path id="Path_10" data-name="Path 10" d="M581.642,1202.235v-22.62h4.634v2.662h.734a3.872,3.872,0,0,1,1.767-2.088,6.193,6.193,0,0,1,3-.666h2.707v4.267H591.6a5.571,5.571,0,0,0-3.763,1.262,4.837,4.837,0,0,0-1.468,3.877v13.306Z" transform="translate(-526.675 -1169.915)" fill="#fff"/>
        <path id="Path_11" data-name="Path 11" d="M617.761,1202.492a12.051,12.051,0,0,1-6.011-1.446,10.209,10.209,0,0,1-4.014-4.083,12.542,12.542,0,0,1-1.445-6.125v-.551a12.813,12.813,0,0,1,1.422-6.171,10.1,10.1,0,0,1,3.969-4.083,11.742,11.742,0,0,1,5.9-1.446,11.052,11.052,0,0,1,5.712,1.446,10.083,10.083,0,0,1,3.831,4.015,12.533,12.533,0,0,1,1.377,6.01v1.79h-17.39a6.453,6.453,0,0,0,2,4.75,6.713,6.713,0,0,0,4.748,1.766,5.912,5.912,0,0,0,4.016-1.194,8.433,8.433,0,0,0,2.087-2.752l3.9,2.018a13.637,13.637,0,0,1-1.858,2.707,9.75,9.75,0,0,1-3.189,2.385A11.512,11.512,0,0,1,617.761,1202.492Zm-6.607-14.27h12.526a5.619,5.619,0,0,0-1.836-4.015,6.312,6.312,0,0,0-4.313-1.445,6.4,6.4,0,0,0-4.336,1.445A6.254,6.254,0,0,0,611.154,1188.222Z" transform="translate(-536.825 -1169.53)" fill="#fff"/>
        <path id="Path_12" data-name="Path 12" d="M657.444,1202.492a10.8,10.8,0,0,1-4.336-.826,7.016,7.016,0,0,1-3.029-2.432,6.627,6.627,0,0,1-1.123-3.9,6.4,6.4,0,0,1,1.123-3.877,6.876,6.876,0,0,1,3.075-2.317,11.857,11.857,0,0,1,4.428-.779h6.882v-1.468a4.279,4.279,0,0,0-1.192-3.166,5,5,0,0,0-3.671-1.194,5.4,5.4,0,0,0-3.717,1.148,5.493,5.493,0,0,0-1.7,2.982l-4.405-1.422a9.56,9.56,0,0,1,1.766-3.326,8.769,8.769,0,0,1,3.234-2.41,11.709,11.709,0,0,1,4.864-.918,10.04,10.04,0,0,1,6.928,2.249,8.1,8.1,0,0,1,2.524,6.377v9.314q0,1.375,1.285,1.376h1.927v3.946h-3.533a3.989,3.989,0,0,1-2.615-.826,2.747,2.747,0,0,1-1.01-2.247v-.139h-.688a10.794,10.794,0,0,1-1.1,1.606,5.893,5.893,0,0,1-2.156,1.583A8.977,8.977,0,0,1,657.444,1202.492Zm.688-3.9a6.452,6.452,0,0,0,4.588-1.628,5.823,5.823,0,0,0,1.743-4.474v-.459h-6.606a5.188,5.188,0,0,0-3.029.8,2.7,2.7,0,0,0-1.147,2.364,2.961,2.961,0,0,0,1.193,2.477A5.216,5.216,0,0,0,658.133,1198.592Z" transform="translate(-554.393 -1169.53)" fill="#fff"/>
      </g>
    </g>
    <ellipse id="Ellipse_3" data-name="Ellipse 3" cx="16.241" cy="16.342" rx="16.241" ry="16.342" transform="translate(419.232 1162.989)" fill="#a1d6f7"/>
    <rect id="Rectangle_8" data-name="Rectangle 8" width="10.588" height="22.941" transform="translate(444.549 1173.084)" fill="#ffd014"/>
    <rect id="Rectangle_9" data-name="Rectangle 9" width="7.551" height="7.551" transform="translate(583.109 1188.508)" fill="#facdd6"/>
  </g>
</svg>
